{
  "accessors": [
    {
      "bufferView": 2,
      "componentType": 5126,
      "count": 1823,
      "max": [
        1.994909644126892,
        1.4514106512069702,
        0.37714654207229614
      ],
      "min": [
        0.9799350500106812,
        -1.4550247192382813,
        -0.3771459758281708
      ],
      "type": "VEC3"
    },
    {
      "bufferView": 2,
      "byteOffset": 21876,
      "componentType": 5126,
      "count": 1823,
      "max": [
        0.9967687129974365,
        0.9989320635795593,
        1.0
      ],
      "min": [
        -0.9148193597793579,
        -0.8871338963508606,
        -1.0
      ],
      "type": "VEC3"
    },
    {
      "bufferView": 1,
      "componentType": 5126,
      "count": 1823,
      "max": [
        1.0,
        1.0
      ],
      "min": [
        0.0,
        0.0
      ],
      "type": "VEC2"
    },
    {
      "bufferView": 1,
      "byteOffset": 14584,
      "componentType": 5126,
      "count": 1823,
      "max": [
        0.0,
        0.0
      ],
      "min": [
        0.0,
        0.0
      ],
      "type": "VEC2"
    },
    {
      "bufferView": 1,
      "byteOffset": 29168,
      "componentType": 5126,
      "count": 1823,
      "max": [
        0.0,
        0.0
      ],
      "min": [
        0.0,
        0.0
      ],
      "type": "VEC2"
    },
    {
      "bufferView": 1,
      "byteOffset": 43752,
      "componentType": 5126,
      "count": 1823,
      "max": [
        0.0,
        0.0
      ],
      "min": [
        0.0,
        0.0
      ],
      "type": "VEC2"
    },
    {
      "bufferView": 1,
      "byteOffset": 58336,
      "componentType": 5126,
      "count": 1823,
      "max": [
        0.0,
        0.0
      ],
      "min": [
        0.0,
        0.0
      ],
      "type": "VEC2"
    },
    {
      "bufferView": 1,
      "byteOffset": 72920,
      "componentType": 5126,
      "count": 1823,
      "max": [
        0.0,
        0.0
      ],
      "min": [
        0.0,
        0.0
      ],
      "type": "VEC2"
    },
    {
      "bufferView": 0,
      "componentType": 5125,
      "count": 4038,
      "type": "SCALAR"
    },
    {
      "bufferView": 2,
      "byteOffset": 43752,
      "componentType": 5126,
      "count": 465,
      "max": [
        1.2791112661361694,
        1.3874784708023071,
        0.12819908559322357
      ],
      "min": [
        -2.0584778785705566,
        -1.3591264486312866,
        -0.12819913029670715
      ],
      "type": "VEC3"
    },
    {
      "bufferView": 2,
      "byteOffset": 49332,
      "componentType": 5126,
      "count": 465,
      "max": [
        0.7278809547424316,
        0.7278809547424316,
        1.0
      ],
      "min": [
        -0.9045395851135254,
        -0.7278809547424316,
        -1.0
      ],
      "type": "VEC3"
    },
    {
      "bufferView": 1,
      "byteOffset": 87504,
      "componentType": 5126,
      "count": 465,
      "max": [
        1.0,
        1.0
      ],
      "min": [
        0.0,
        0.0
      ],
      "type": "VEC2"
    },
    {
      "bufferView": 1,
      "byteOffset": 91224,
      "componentType": 5126,
      "count": 465,
      "max": [
        0.0,
        0.0
      ],
      "min": [
        0.0,
        0.0
      ],
      "type": "VEC2"
    },
    {
      "bufferView": 1,
      "byteOffset": 94944,
      "componentType": 5126,
      "count": 465,
      "max": [
        0.0,
        0.0
      ],
      "min": [
        0.0,
        0.0
      ],
      "type": "VEC2"
    },
    {
      "bufferView": 1,
      "byteOffset": 98664,
      "componentType": 5126,
      "count": 465,
      "max": [
        0.0,
        0.0
      ],
      "min": [
        0.0,
        0.0
      ],
      "type": "VEC2"
    },
    {
      "bufferView": 1,
      "byteOffset": 102384,
      "componentType": 5126,
      "count": 465,
      "max": [
        0.0,
        0.0
      ],
      "min": [
        0.0,
        0.0
      ],
      "type": "VEC2"
    },
    {
      "bufferView": 1,
      "byteOffset": 106104,
      "componentType": 5126,
      "count": 465,
      "max": [
        0.0,
        0.0
      ],
      "min": [
        0.0,
        0.0
      ],
      "type": "VEC2"
    },
    {
      "bufferView": 0,
      "byteOffset": 16152,
      "componentType": 5125,
      "count": 1296,
      "type": "SCALAR"
    },
    {
      "bufferView": 2,
      "byteOffset": 54912,
      "componentType": 5126,
      "count": 240,
      "max": [
        1.656211256980896,
        1.1586593389511108,
        0.37714529037475586
      ],
      "min": [
        1.115746021270752,
        0.6181941032409668,
        -0.3771454095840454
      ],
      "type": "VEC3"
    },
    {
      "bufferView": 2,
      "byteOffset": 57792,
      "componentType": 5126,
      "count": 240,
      "max": [
        0.7278809547424316,
        0.7278809547424316,
        0.7298514246940613
      ],
      "min": [
        -0.7278809547424316,
        -0.7278809547424316,
        -0.7298514246940613
      ],
      "type": "VEC3"
    },
    {
      "bufferView": 1,
      "byteOffset": 109824,
      "componentType": 5126,
      "count": 240,
      "max": [
        0.9462931156158447,
        0.4462928771972656
      ],
      "min": [
        0.05370698496699333,
        0.053706999868154526
      ],
      "type": "VEC2"
    },
    {
      "bufferView": 1,
      "byteOffset": 111744,
      "componentType": 5126,
      "count": 240,
      "max": [
        0.0,
        0.0
      ],
      "min": [
        0.0,
        0.0
      ],
      "type": "VEC2"
    },
    {
      "bufferView": 1,
      "byteOffset": 113664,
      "componentType": 5126,
      "count": 240,
      "max": [
        0.0,
        0.0
      ],
      "min": [
        0.0,
        0.0
      ],
      "type": "VEC2"
    },
    {
      "bufferView": 1,
      "byteOffset": 115584,
      "componentType": 5126,
      "count": 240,
      "max": [
        0.0,
        0.0
      ],
      "min": [
        0.0,
        0.0
      ],
      "type": "VEC2"
    },
    {
      "bufferView": 1,
      "byteOffset": 117504,
      "componentType": 5126,
      "count": 240,
      "max": [
        0.0,
        0.0
      ],
      "min": [
        0.0,
        0.0
      ],
      "type": "VEC2"
    },
    {
      "bufferView": 1,
      "byteOffset": 119424,
      "componentType": 5126,
      "count": 240,
      "max": [
        0.0,
        0.0
      ],
      "min": [
        0.0,
        0.0
      ],
      "type": "VEC2"
    },
    {
      "bufferView": 0,
      "byteOffset": 21336,
      "componentType": 5125,
      "count": 564,
      "type": "SCALAR"
    },
    {
      "bufferView": 2,
      "byteOffset": 60672,
      "componentType": 5126,
      "count": 260,
      "max": [
        1.7144765853881836,
        1.2169246673583984,
        0.12571516633033752
      ],
      "min": [
        1.0574805736541748,
        0.5599287748336792,
        -0.12571531534194946
      ],
      "type": "VEC3"
    },
    {
      "bufferView": 2,
      "byteOffset": 63792,
      "componentType": 5126,
      "count": 260,
      "max": [
        0.7278809547424316,
        0.7278809547424316,
        0.7298514246940613
      ],
      "min": [
        -0.7278809547424316,
        -0.7278809547424316,
        -0.7298514246940613
      ],
      "type": "VEC3"
    },
    {
      "bufferView": 1,
      "byteOffset": 121344,
      "componentType": 5126,
      "count": 260,
      "max": [
        1.0,
        0.7631934285163879
      ],
      "min": [
        0.0,
        0.054136209189891815
      ],
      "type": "VEC2"
    },
    {
      "bufferView": 1,
      "byteOffset": 123424,
      "componentType": 5126,
      "count": 260,
      "max": [
        0.0,
        0.0
      ],
      "min": [
        0.0,
        0.0
      ],
      "type": "VEC2"
    },
    {
      "bufferView": 1,
      "byteOffset": 125504,
      "componentType": 5126,
      "count": 260,
      "max": [
        0.0,
        0.0
      ],
      "min": [
        0.0,
        0.0
      ],
      "type": "VEC2"
    },
    {
      "bufferView": 1,
      "byteOffset": 127584,
      "componentType": 5126,
      "count": 260,
      "max": [
        0.0,
        0.0
      ],
      "min": [
        0.0,
        0.0
      ],
      "type": "VEC2"
    },
    {
      "bufferView": 1,
      "byteOffset": 129664,
      "componentType": 5126,
      "count": 260,
      "max": [
        0.0,
        0.0
      ],
      "min": [
        0.0,
        0.0
      ],
      "type": "VEC2"
    },
    {
      "bufferView": 1,
      "byteOffset": 131744,
      "componentType": 5126,
      "count": 260,
      "max": [
        0.0,
        0.0
      ],
      "min": [
        0.0,
        0.0
      ],
      "type": "VEC2"
    },
    {
      "bufferView": 0,
      "byteOffset": 23592,
      "componentType": 5125,
      "count": 396,
      "type": "SCALAR"
    }
  ],
  "asset": {
    "extras": {
      "author": "NinJOke (https://sketchfab.com/NinJOke)",
      "license": "CC-BY-4.0 (http://creativecommons.org/licenses/by/4.0/)",
      "source": "https://sketchfab.com/3d-models/key-card-559d847c11e74dcca5e569b2bbba33e6",
      "title": "Key Card"
    },
    "generator": "Sketchfab-12.68.0",
    "version": "2.0"
  },
  "bufferViews": [
    {
      "buffer": 0,
      "byteLength": 25176,
      "name": "floatBufferViews",
      "target": 34963
    },
    {
      "buffer": 0,
      "byteLength": 133824,
      "byteOffset": 25176,
      "byteStride": 8,
      "name": "floatBufferViews",
      "target": 34962
    },
    {
      "buffer": 0,
      "byteLength": 66912,
      "byteOffset": 159000,
      "byteStride": 12,
      "name": "floatBufferViews",
      "target": 34962
    }
  ],
  "buffers": [
    {
      "byteLength": 225912,
      "uri": "scene.bin"
    }
  ],
  "materials": [
    {
      "doubleSided": true,
      "name": "Metal",
      "pbrMetallicRoughness": {
        "baseColorFactor": [
          0.864824582,
          0.864824582,
          0.864824582,
          1.0
        ],
        "roughnessFactor": 0.9178828632
      }
    },
    {
      "alphaMode": "BLEND",
      "doubleSided": true,
      "emissiveFactor": [
        0.02647262709669643,
        1.0,
        1.0
      ],
      "name": "Hologram",
      "pbrMetallicRoughness": {
        "baseColorFactor": [
          0.0159139,
          0.8,
          0.8,
          0.5
        ],
        "metallicFactor": 0.0,
        "roughnessFactor": 0.5592606707000001
      }
    },
    {
      "doubleSided": true,
      "name": "Button",
      "pbrMetallicRoughness": {
        "baseColorFactor": [
          0.3417455924,
          0.3417455924,
          0.3417455924,
          1.0
        ],
        "metallicFactor": 0.1480564024,
        "roughnessFactor": 0.8598738933
      }
    },
    {
      "doubleSided": true,
      "emissiveFactor": [
        0.0,
        1.0,
        1.0
      ],
      "name": "Light",
      "pbrMetallicRoughness": {
        "baseColorFactor": [
          0.0,
          1.0,
          0.852034,
          1.0
        ],
        "metallicFactor": 0.0,
        "roughnessFactor": 0.8263208313
      }
    }
  ],
  "meshes": [
    {
      "name": "Plane_Metal_0",
      "primitives": [
        {
          "attributes": {
            "NORMAL": 1,
            "POSITION": 0,
            "TEXCOORD_0": 2,
            "TEXCOORD_1": 3,
            "TEXCOORD_2": 4,
            "TEXCOORD_3": 5,
            "TEXCOORD_4": 6,
            "TEXCOORD_5": 7
          },
          "indices": 8,
          "material": 0,
          "mode": 4
        }
      ]
    },
    {
      "name": "Plane_Hologram_0",
      "primitives": [
        {
          "attributes": {
            "NORMAL": 10,
            "POSITION": 9,
            "TEXCOORD_0": 11,
            "TEXCOORD_1": 12,
            "TEXCOORD_2": 13,
            "TEXCOORD_3": 14,
            "TEXCOORD_4": 15,
            "TEXCOORD_5": 16
          },
          "indices": 17,
          "material": 1,
          "mode": 4
        }
      ]
    },
    {
      "name": "Plane_Button_0",
      "primitives": [
        {
          "attributes": {
            "NORMAL": 19,
            "POSITION": 18,
            "TEXCOORD_0": 20,
            "TEXCOORD_1": 21,
            "TEXCOORD_2": 22,
            "TEXCOORD_3": 23,
            "TEXCOORD_4": 24,
            "TEXCOORD_5": 25
          },
          "indices": 26,
          "material": 2,
          "mode": 4
        }
      ]
    },
    {
      "name": "Plane_Light_0",
      "primitives": [
        {
          "attributes": {
            "NORMAL": 28,
            "POSITION": 27,
            "TEXCOORD_0": 29,
            "TEXCOORD_1": 30,
            "TEXCOORD_2": 31,
            "TEXCOORD_3": 32,
            "TEXCOORD_4": 33,
            "TEXCOORD_5": 34
          },
          "indices": 35,
          "material": 3,
          "mode": 4
        }
      ]
    }
  ],
  "nodes": [
    {
      "children": [
        1
      ],
      "matrix": [
        -1.0,
        -6.290011496532519e-32,
        2.832769343193999e-16,
        0.0,
        2.832769343193999e-16,
        -2.220446049250313e-16,
        1.0,
        0.0,
        0.0,
        1.0,
        2.220446049250313e-16,
        0.0,
        -9.146356205746997e-06,
        2.778579072717164e-07,
        0.3491520881652832,
        1.0
      ],
      "name": "Sketchfab_model"
    },
    {
      "children": [
        2
      ],
      "matrix": [
        1.0,
        0.0,
        0.0,
        0.0,
        0.0,
        0.0,
        1.0,
        0.0,
        0.0,
        -1.0,
        0.0,
        0.0,
        0.0,
        0.0,
        0.0,
        1.0
      ],
      "name": "5853ba33ed9946ef87e71624a3104561.fbx"
    },
    {
      "children": [
        3
      ],
      "name": "RootNode"
    },
    {
      "children": [
        4,
        5,
        6,
        7
      ],
      "matrix": [
        7.549789948768648e-06,
        -99.99999999999973,
        0.0,
        0.0,
        7.549789954319763e-06,
        5.551115123125783e-13,
        -99.99999999999973,
        0.0,
        29.563976287841633,
        2.232018111876957e-06,
        2.2320181102358265e-06,
        0.0,
        0.0,
        0.0,
        0.0,
        1.0
      ],
      "name": "Plane"
    },
    {
      "mesh": 0,
      "name": "Plane_Metal_0"
    },
    {
      "mesh": 1,
      "name": "Plane_Hologram_0"
    },
    {
      "mesh": 2,
      "name": "Plane_Button_0"
    },
    {
      "mesh": 3,
      "name": "Plane_Light_0"
    }
  ],
  "scene": 0,
  "scenes": [
    {
      "name": "Sketchfab_Scene",
      "nodes": [
        0
      ]
    }
  ]
}
